<svg height="500" version="1.1" width="500" xmlns="http://www.w3.org/2000/svg"><desc>Created with Snap</desc><defs/><path d="M433.73661273361057,182.99493658684702Q499,213.2461665876026 499,331.2164800420802Q499.00000000000006,449.18679349655787 384.9514099699921,474.0933967482789Q270.9028199399841,499 250.63797089647323,499Q230.37312185296233,499 215.79940652511885,441.82956103979006Q201.22569119727535,384.65912207958013 284.8494583322482,268.7014143328358Q368.47322546722114,152.74370658609143 433.73661273361057,182.99493658684702" class="bezier-shape" style="stroke-width: 0;"/><path d="M384.9514099699921,474.0933967482789Q499.00000000000006,449.18679349655787 499,474.0933967482789Q499,499 384.951409969992,499Q270.9028199399841,499 384.9514099699921,474.0933967482789" class="bezier-shape" style="stroke-width: 0;"/><path d="M284.8494583322482,268.7014143328358Q201.22569119727535,384.65912207958013 166.49312364939158,248.408612977487Q131.76055610150783,112.15810387539385 191.47768612121138,105.27015134057513Q251.19481614091492,98.38219880575639 309.834020804068,125.56295269592391Q368.47322546722114,152.74370658609143 284.8494583322482,268.7014143328358" class="bezier-shape" style="stroke-width: 0;"/><path d="M191.47768612121138,105.27015134057513Q131.76055610150783,112.15810387539385 121.76774068604941,72.95782920976777Q111.77492527059098,33.75755454414167 181.48487070575294,66.06987667494903Q251.19481614091492,98.38219880575639 191.47768612121138,105.27015134057513" class="bezier-shape" style="stroke-width: 0;"/><path d="M460.4367851960318,74.24760374621286Q499,69.79960711489271 499,141.52288685124765Q499,213.2461665876026 433.73661273361057,182.99493658684702Q368.47322546722114,152.74370658609143 395.1733979296424,115.71965348181223Q421.87357039206364,78.69560037753303 460.4367851960318,74.24760374621286" class="bezier-shape" style="stroke-width: 0;"/><path d="M395.1733979296424,115.71965348181223Q368.47322546722114,152.74370658609143 309.834020804068,125.56295269592391Q251.19481614091492,98.38219880575639 336.5341932664893,88.53889959164471Q421.87357039206364,78.69560037753303 395.1733979296424,115.71965348181223" class="bezier-shape" style="stroke-width: 0;"/><path d="M450.24953042263985,39.34780018876649Q478.62549045321606,-4.263256414560601e-14 488.81274522660806,-2.1316282072803006e-14Q499,0 499,34.899803557446354Q499,69.79960711489271 460.4367851960318,74.24760374621286Q421.87357039206364,78.69560037753303 450.24953042263985,39.34780018876649" class="bezier-shape" style="stroke-width: 0;"/><path d="M107.47223843594136,16.87877727207082Q103.16955160129174,-2.842170943040401e-14 290.8975210272539,-3.552713678800501e-14Q478.62549045321606,-4.263256414560601e-14 450.24953042263985,39.34780018876649Q421.87357039206364,78.69560037753303 336.5341932664893,88.53889959164471Q251.19481614091492,98.38219880575639 181.48487070575294,66.06987667494903Q111.77492527059098,33.75755454414167 107.47223843594136,16.87877727207082" class="bezier-shape" style="stroke-width: 0;"/><path d="M159.9968020832009,441.82956103979006Q201.22569119727535,384.65912207958013 215.79940652511885,441.82956103979006Q230.37312185296233,499 174.57051741104436,499Q118.76791296912643,498.99999999999994 159.9968020832009,441.82956103979006" class="bezier-shape" style="stroke-width: 0;"/><path d="M65.88027805075392,119.75693235299363Q131.76055610150783,112.15810387539385 166.49312364939158,248.408612977487Q201.22569119727535,384.65912207958013 159.9968020832009,441.82956103979006Q118.76791296912643,498.99999999999994 59.383956484563214,499Q0,499 0,313.1778804152967Q0,127.35576083059343 65.88027805075392,119.75693235299363" class="bezier-shape" style="stroke-width: 0;"/><path d="M0,63.67788041529671Q0,0 19.473532436001847,-7.105427357601002e-15Q38.94706487200369,-1.4210854715202004e-14 75.36099507129734,16.878777272070828Q111.77492527059098,33.75755454414167 121.76774068604941,72.95782920976777Q131.76055610150783,112.15810387539385 65.88027805075392,119.75693235299363Q0,127.35576083059343 0,63.67788041529671" class="bezier-shape" style="stroke-width: 0;"/><path d="M75.36099507129734,16.878777272070828Q38.94706487200369,-1.4210854715202004e-14 71.05830823664772,-2.1316282072803006e-14Q103.16955160129174,-2.842170943040401e-14 107.47223843594136,16.87877727207082Q111.77492527059098,33.75755454414167 75.36099507129734,16.878777272070828" class="bezier-shape" style="stroke-width: 0;"/></svg>
