<?xml version="1.0" encoding="utf-8"?>
<!-- Generator: Adobe Illustrator 26.1.0, SVG Export Plug-In . SVG Version: 6.00 Build 0)  -->
<svg version="1.1" id="Layer_1" xmlns="http://www.w3.org/2000/svg" xmlns:xlink="http://www.w3.org/1999/xlink" x="0px" y="0px"
	 viewBox="0 0 500 500" style="enable-background:new 0 0 500 500;" xml:space="preserve">
<style type="text/css">
	.st0{fill:#F0F0F0;}
</style>
<desc>Created with Snap</desc>
<path class="st0" d="M433.7,183c43.5,20.2,65.3,69.6,65.3,148.2s-38,126.3-114,142.9c-76,16.6-120.8,24.9-134.3,24.9
	c-13.5,0-25.1-19.1-34.8-57.2s13.3-95.8,69.1-173.1S390.2,162.8,433.7,183"/>
<path class="st0" d="M385,474.1c76-16.6,114-16.6,114,0c0,16.6-38,24.9-114,24.9S308.9,490.7,385,474.1"/>
<path class="st0" d="M284.8,268.7c-55.7,77.3-95.2,70.5-118.4-20.3s-14.8-138.5,25-143.1c39.8-4.6,79.3,2.2,118.4,20.3
	S340.6,191.4,284.8,268.7"/>
<path class="st0" d="M191.5,105.3c-39.8,4.6-63-6.2-69.7-32.3s13.2-28.4,59.7-6.9S231.3,100.7,191.5,105.3"/>
<path class="st0" d="M460.4,74.2c25.7-3,38.6,19.5,38.6,67.3s-21.8,61.6-65.3,41.5s-56.4-42.6-38.6-67.3S434.7,77.2,460.4,74.2"/>
<path class="st0" d="M395.2,115.7c-17.8,24.7-46.2,28-85.3,9.8s-30.2-30.5,26.7-37C393.4,82,413,91,395.2,115.7"/>
<path class="st0" d="M450.2,39.3C469.2,13.1,482,0,488.8,0S499,11.6,499,34.9s-12.9,36.4-38.6,39.3S431.3,65.6,450.2,39.3"/>
<path class="st0" d="M107.5,16.9C104.6,5.6,165.7,0,290.9,0s178.3,13.1,159.4,39.3S393.4,82,336.5,88.5
	c-56.9,6.6-108.6-0.9-155-22.5S110.3,28.1,107.5,16.9"/>
<path class="st0" d="M160,441.8c27.5-38.1,46.1-38.1,55.8,0s-4,57.2-41.2,57.2S132.5,479.9,160,441.8"/>
<path class="st0" d="M65.9,119.8c43.9-5.1,77.5,37.8,100.6,128.7s21,155.3-6.5,193.4S99,499,59.4,499S0,437.1,0,313.2
	S22,124.8,65.9,119.8"/>
<path class="st0" d="M0,63.7C0,21.2,6.5,0,19.5,0s31.6,5.6,55.9,16.9s39.7,29.9,46.4,56.1s-12,41.7-55.9,46.8
	C22,124.8,0,106.1,0,63.7"/>
<path class="st0" d="M75.4,16.9C51.1,5.6,49.7,0,71.1,0s33.5,5.6,36.4,16.9C110.3,28.1,99.6,28.1,75.4,16.9"/>
</svg>
